<svg width="32" height="32" viewBox="0 0 32 32" fill="none" xmlns="http://www.w3.org/2000/svg">
<path d="M28.9298 1H20.0647C19.789 0.9998 19.5245 1.10869 19.3289 1.30289L1.60592 19.0216C1.21785 19.4115 1 19.9392 1 20.4892C1 21.0392 1.21785 21.5669 1.60592 21.9567L10.0454 30.3942C10.4354 30.7822 10.9632 31 11.5133 31C12.0635 31 12.5913 30.7822 12.9812 30.3942L30.697 12.6827C30.8913 12.4872 31.0002 12.2227 31 11.9471V3.07692C31.0013 2.80441 30.9487 2.53433 30.8452 2.28222C30.7418 2.0301 30.5894 1.80093 30.397 1.6079C30.2046 1.41487 29.9759 1.26179 29.7241 1.15746C29.4723 1.05313 29.2023 0.999618 28.9298 1Z" stroke="#BC002E" stroke-width="2" stroke-linecap="round" stroke-linejoin="round"/>
<path d="M25.3145 4.05859C25.7478 3.97247 26.1973 4.01648 26.6055 4.18555C27.0136 4.35466 27.362 4.64148 27.6074 5.00879C27.8529 5.37623 27.9844 5.80808 27.9844 6.25C27.9844 6.84259 27.7491 7.41105 27.3301 7.83008C26.9111 8.2491 26.3426 8.48438 25.75 8.48438C25.3081 8.48437 24.8762 8.35294 24.5088 8.10742C24.1415 7.86197 23.8547 7.51359 23.6855 7.10547C23.5165 6.6973 23.4725 6.24778 23.5586 5.81445C23.6448 5.38103 23.8574 4.9824 24.1699 4.66992C24.4824 4.35744 24.881 4.14481 25.3145 4.05859Z" fill="#BC002E" stroke="#BC002E" stroke-width="0.03125"/>
</svg>
